<?xml version='1.0' encoding='utf-8'?>
<svg xmlns="http://www.w3.org/2000/svg" version="1.1" viewBox="0 0 1024 1024"> <path d="m1024 0v1024h-1024v-1024h1024z" fill="#fff"/> <path d="m400.91 220.55q-9.09 6.15-12.74 15.67-5.73-1.06-14.69-0.76c-8.23 0.28-16.96 0.46-24.72 1.8q-33.55 5.81-60.52 26.99c-27.47-5.83-55.1-6.24-83.05-7.44 38.99-58.28 113.59-78.21 176.75-46.73q8.2 4.08 18.97 10.47z" fill="#97d5ea"/> <path d="m813.54 248.61q-15.64 3.06-27.1 4.02c-22.94 1.91-38.11 3.15-58.04 6.69q-16.16-12-35.57-17.74c-5.02-1.49-11.48-2.56-17.2-3.96q-3.07-0.76-9.03-0.41l-2.62-9.41a0.97 0.97 0 0 0-0.93-0.7h-9.41a0.48 0.47 0 0 1-0.48-0.47l-0.2-13.71a1.51 1.51 0 0 0-1.51-1.49h-0.1a1.42 1.42 0 0 0-1.47 1.4l-0.15 13.7a0.62 0.62 0 0 1-0.62 0.61h-8.76a1.4 1.4 0 0 0-1.34 1l-2.04 6.9q-0.62-0.22-1.17-0.14-0.54 0.07-0.89 0.65-0.51 0.83-1.17 0.88-5.12 0.39-11.45 2.1c-5.56 1.51-10.48 1.53-15.83 3.21-11.75 3.68-22.63 8.85-33.51 14.23l-3.53-11.53q21.4-8 28.24-11.5 22.91-11.73 26.04-13.49c7.08-3.99 14.44-8.36 21.86-11.22 4.84-1.87 9.32-4.14 14.28-5.78 55.91-18.45 117.4-1.19 153.7 46.16z" fill="#97d5ea"/> <path d="m666.6 237.21q0.16 2.08 1.06 2.52a0.3 0.28-29.3 0 0 0.13 0.03h8.44a1.34 1.34 0 0 1 1.34 1.34q0.01 1.18-0.4 2.33-4.3 12.09-6.97 19.13a1.58 1.56 10.2 0 1-1.47 1.01h-5.14a0.53 0.52-2 0 0-0.53 0.56l2.22 30.43a0.95 0.94-1.9 0 0 0.95 0.88h29.29a1.09 1.08 6.7 0 0 1.06-0.83q1.85-7.98 7.77-14.28 14.69-15.63 37.07-9.71 17.05 6.44 22.47 24.2a0.85 0.84-8.3 0 0 0.81 0.6h27.49a1.29 1.29 0 0 1 1.29 1.29l-0.12 98.73 0.08 24.32a1.14 1.14 0 0 1-1.13 1.14l-17.39 0.14-93.9-0.22a0.55 0.55 0 0 0-0.54 0.45l-0.89 5.15a0.77 0.76 12.6 0 0 0.56 0.88c5.6 1.51 9.89 2.13 11.56 7.93q0.69 2.39-1.39 8.69-1.76 5.34-3.75 12.4-9.59 34.03-22.69 79.25c-1.26 4.38-2.62 6.27-6.49 7.74q-2.04 0.78-7.7-0.83-22.91-6.53-29.37-8.56a3.32 2.68 49.1 0 0-0.42-0.09l-17.03-2.01a0.67 0.66 5.5 0 0-0.74 0.6l-0.2 2.02a1.2 1.19-86.2 0 1-1.23 1.08l-43.81-1.38a0.28 0.28 0 0 0-0.29 0.26l-2.18 22.03a1.63 1.61-18 0 1-0.56 1.08q-1.14 0.98-3.1 0.88a0.51 0.5-9.1 0 0-0.5 0.68q14.15 38.44 31.18 83.25 1.44 3.8 2.97 9.25 7.91 28.29 14.6 53.58c4.14 15.68 10.6 37.1 14.32 52.17a1.73 1.73 0 0 1-1.12 2.05l-1.38 0.48a0.73 0.73 0 0 0-0.5 0.77l0.33 3.12a0.95 0.94-2 0 0 0.92 0.85l2.72 0.09a1.84 1.8-30.1 0 1 0.79 0.2q6.6 3.39 14.45 5.34a5.29 5.23 48.6 0 0 1.9 0.13c8.34-0.87 15.59-3.68 23.75 0.47 5.1 3.07 10.09 9.18 9.72 15.4a2.9 2.9 0 0 1-1.97 2.57l-22.44 7.5-46.71 15.88a0.18 0.17-39.1 0 0-0.04 0.32l0.48 0.27a0.22 0.17-25.5 0 0 0.09 0.02l213 0.1a1.6 1.6 0 0 1 1.6 1.53v0.04a1.46 1.46 0 0 1-1.46 1.53q-81.24 0.2-181.52 0.05-16.72-0.03-26.87 0.08c-12.19 0.13-26.79-0.22-36.76-0.2q-207.93 0.28-376.81 0.05-7.94-0.02-15.27-0.27a1.27 1.26-68.3 0 1-0.9-2.1q0.76-0.86 2.42-0.86 189.47 0.07 196.5 0.1 13.16 0.05 25.72-0.27a0.28 0.28 0 0 0 0.19-0.48l-15.6-15.06-25.78-25.29-12-11.83a2.07 2.06 19.7 0 1-0.61-1.28l-0.06-0.59a1.14 1.11-83.9 0 0-0.74-0.94l-73.01-25.6-48.63-16.81a1.62 1.61-80.9 0 1-1.09-1.52l-0.03-9.03-0.06-128.51 0.03-46.3a1.4 1.4 0 0 1 1.87-1.32l21.29 7.61 28.47 9.99 78.41 27.38a0.85 0.85 0 0 0 0.54 0l52.05-17.77a0.43 0.43 0 0 0-0.04-0.83c-7.27-1.58-17.29-3.43-23.26-7.48q-14.37-9.75-12.06-28.57a0.56 0.56 0 0 0-0.38-0.59c-10.77-3.58-17.29-13.22-14.25-24.56q7.88-29.34 10.04-37.46 2.27-8.51 4.71-11.39c4.6-5.43 12.28-7.26 19.46-5.43a1.04 1.04 0 0 0 1.26-0.74c2.91-11.2 5.94-25.64 9.57-38.17q2.93-10.1 3.71-13.82c2.18-10.47 6.6-17.86 15.73-21.64q0.74-0.31 1.49-0.66a1.27 1.24-4.4 0 0 0.7-0.8q0.87-2.9 1.45-5.04c5.82-21.16 29.44-31.96 49.73-24.02 16.06 6.29 25.04 21.94 23.91 39.2a1.22 1.21 17.1 0 0 0.6 1.13q0.99 0.57 1.11 0.92a3.22 3.17 40.3 0 1 0.14 1.57l-1.19 7.34a0.41 0.41 0 0 0 0.41 0.47q11.47-0.24 22.99 1.41a0.81 0.79 11.1 0 0 0.88-0.58l3.02-11.32a2.13 2.13 0 0 0-0.2-1.56q-4.22-7.5-7.99-15.22c-4.08-8.35-6.17-15.87-5.31-24.37q0.97-9.55 8.45-14.56a2.66 2.62 83.7 0 0 1.03-1.31q0.02-0.06 1.29-3.92 2.28-6.9 9.37-10.14c7.63-3.48 18.61-2.1 23.67-2.34 5.35-0.25 7.54-2.74 11.17-6.39a3.29 3.2-81.8 0 1 0.74-0.57c19.14-11.17 42.85 22.54 18.8 35.78a1.1 1.09 67.6 0 0-0.52 1.26q1.42 4.94 1.71 9.63c0.24 4.02 1.17 7 2.81 10.12 2.74 5.21 7.06 11.24 0.73 14.39q-2.2 1.1-3.46 1.19a0.72 0.71-86.8 0 0-0.65 0.59c-0.35 1.92-0.63 4.47-0.97 5.82q-4.92 19.58-25.75 18.02a0.79 0.78 9.8 0 0-0.82 0.57l-4.19 15.75a0.8 0.77-55.7 0 0 0.11 0.64q10 14.43 12.47 32 1.11 7.89 1.34 20.03a0.82 0.81 1.2 0 0 0.76 0.79l17.12 1.07a2.91 2.86-58.2 0 0 1.68-0.41q4.65-2.79 7.1-5.09 5.76-5.4 6.84-6.04a1.69 1.66 83.5 0 0 0.75-0.96q0.65-2.09 1.61-6.8 0.89-4.37 5.61-30.85 1.23-6.9 2.96-8.87 3.11-3.55 8.78-2.63 8.51 1.38 16.58 3.22a0.68 0.68 0 0 0 0.83-0.68q-0.39-16.05-0.34-22.8c0.01-1.28-0.42-2.84-0.44-4.01-0.21-10.48 0.64-21.4 0.71-33.35q0.13-21.51-0.18-44.39-0.04-2.82 3.05-2.25a1.02 1.01 7 0 0 1.2-0.93l1.91-30.59a0.52 0.52 0 0 0-0.52-0.56h-5.5a1.17 1.16-10.6 0 1-1.09-0.74q-3.01-7.96-7.6-20.91-0.38-1.04 0.59-1.6c0.99-0.56 5.47-0.32 9.7-0.35a0.77 0.76 8.8 0 0 0.73-0.53l1.36-4.26 2.04-6.9a1.4 1.4 0 0 1 1.34-1h8.76a0.62 0.62 0 0 0 0.62-0.61l0.15-13.7a1.42 1.42 0 0 1 1.47-1.4h0.1a1.51 1.51 0 0 1 1.51 1.49l0.2 13.71a0.48 0.47 0 0 0 0.48 0.47h9.41a0.97 0.97 0 0 1 0.93 0.7l2.62 9.41z" fill="#070807"/> <path d="m454.78 244.7q0.81 8.17-1.43 14.47-1.05 3.11-1.91 4.81c-8.12 16.13-19.61 31.53-29.41 45.49a1.92 1.91 32.1 0 1-2.5 0.57q-0.54-0.31-1.05-1.03c-10.45-14.93-21.13-29.19-29.19-45.18q-6.55-12.99-1.12-27.61 3.65-9.52 12.74-15.67 16.5-10.89 33.88-2.89 17.39 8 19.99 27.04z" fill="#070807"/> <path d="m420.48 305.7q-0.21 0-0.49-0.38-11.56-16.08-20.35-29.82-5.65-8.81-7.74-13.9-7.63-18.55 5.3-33.54c5.71-6.62 14.53-10.28 23.11-10.3 8.57-0.02 17.41 3.58 23.15 10.18q13.01 14.92 5.48 33.51-2.06 5.1-7.66 13.94-8.72 13.78-20.19 29.92-0.28 0.39-0.61 0.39z" fill="#f06052"/> <path d="m440.23 248.74a19.89 19.89 0 0 1-19.89 19.89 19.89 19.89 0 0 1-19.89-19.89 19.89 19.89 0 0 1 19.89-19.89 19.89 19.89 0 0 1 19.89 19.89z" fill="#070807"/> <path d="m638.59 239.05 2.8-8.17a0.72 0.72 0 0 1 0.68-0.49h18.69a0.72 0.72 0 0 1 0.69 0.51l2.45 8.17a0.72 0.72 0 0 1-0.69 0.93h-23.94a0.72 0.72 0 0 1-0.68-0.95z" fill="#6980de"/> <path d="m436.93 248.78a16.53 16.53 0 0 1-16.53 16.53 16.53 16.53 0 0 1-16.53-16.53 16.53 16.53 0 0 1 16.53-16.53 16.53 16.53 0 0 1 16.53 16.53z" fill="#fff"/> <path d="m636.97 235.04-1.36 4.26a0.77 0.76 8.8 0 1-0.73 0.53c-4.23 0.03-8.71-0.21-9.7 0.35q-0.97 0.56-0.59 1.6 4.59 12.95 7.6 20.91a1.17 1.16-10.6 0 0 1.09 0.74h5.5a0.52 0.52 0 0 1 0.52 0.56l-1.91 30.59a1.02 1.01 7 0 1-1.2 0.93q-3.09-0.57-3.05 2.25 0.31 22.88 0.18 44.39c-0.07 11.95-0.92 22.87-0.71 33.35 0.02 1.17 0.45 2.73 0.44 4.01q-0.05 6.75 0.34 22.8a0.68 0.68 0 0 1-0.83 0.68q-8.07-1.84-16.58-3.22-5.67-0.92-8.78 2.63-1.73 1.97-2.96 8.87-4.72 26.48-5.61 30.85-0.96 4.71-1.61 6.8a1.69 1.66 83.5 0 1-0.75 0.96q-1.08 0.64-6.84 6.04-2.45 2.3-7.1 5.09a2.91 2.86-58.2 0 1-1.68 0.41l-17.12-1.07a0.82 0.81 1.2 0 1-0.76-0.79q-0.23-12.14-1.34-20.03-2.47-17.57-12.47-32a0.8 0.77-55.7 0 1-0.11-0.64l4.19-15.75a0.79 0.78 9.8 0 1 0.82-0.57q20.83 1.56 25.75-18.02c0.34-1.35 0.62-3.9 0.97-5.82a0.72 0.71-86.8 0 1 0.65-0.59q1.26-0.09 3.46-1.19c6.33-3.15 2.01-9.18-0.73-14.39-1.64-3.12-2.57-6.1-2.81-10.12q-0.29-4.69-1.71-9.63a1.1 1.09 67.6 0 1 0.52-1.26c24.05-13.24 0.34-46.95-18.8-35.78a3.29 3.2-81.8 0 0-0.74 0.57c-3.63 3.65-5.82 6.14-11.17 6.39-5.06 0.24-16.04-1.14-23.67 2.34q-7.09 3.24-9.37 10.14-1.27 3.86-1.29 3.92a2.66 2.62 83.7 0 1-1.03 1.31q-7.48 5.01-8.45 14.56c-0.86 8.5 1.23 16.02 5.31 24.37q3.77 7.72 7.99 15.22a2.13 2.13 0 0 1 0.2 1.56l-3.02 11.32a0.81 0.79 11.1 0 1-0.88 0.58q-11.52-1.65-22.99-1.41a0.41 0.41 0 0 1-0.41-0.47l1.19-7.34a3.22 3.17 40.3 0 0-0.14-1.57q-0.12-0.35-1.11-0.92a1.22 1.21 17.1 0 1-0.6-1.13c1.13-17.26-7.85-32.91-23.91-39.2-20.29-7.94-43.91 2.86-49.73 24.02q-0.58 2.14-1.45 5.04a1.27 1.24-4.4 0 1-0.7 0.8q-0.75 0.35-1.49 0.66c-9.13 3.78-13.55 11.17-15.73 21.64q-0.78 3.72-3.71 13.82c-3.63 12.53-6.66 26.97-9.57 38.17a1.04 1.04 0 0 1-1.26 0.74c-7.18-1.83-14.86 0-19.46 5.43q-2.44 2.88-4.71 11.39-2.16 8.12-10.04 37.46c-3.04 11.34 3.48 20.98 14.25 24.56a0.56 0.56 0 0 1 0.38 0.59q-2.31 18.82 12.06 28.57c5.97 4.05 15.99 5.9 23.26 7.48a0.43 0.43 0 0 1 0.04 0.83l-52.05 17.77a0.85 0.85 0 0 1-0.54 0l-78.41-27.38c1.1-3.66 2.88-7.35 3.82-10.62q6.62-23.12 3.73-47-0.52-4.38-1.9-9.97-1.18-4.75-2.54-9.82l12.78 4.8a4.03 4.02 45.1 0 0 2.84 0.01l50.34-18.61a1.99 1.98-10.2 0 0 1.3-1.86v-96.81a1.11 1.11 0 0 0-1.49-1.04l-50.81 18.78a1.08 1.05 43.5 0 1-0.71 0.01l-5.78-1.99a0.75 0.75 0 0 1-0.45-0.99q5.02-12.03-1.6-22.81c-1.16-1.88-2.45-3.12-3.52-4.49a0.38 0.38 0 0 1 0.3-0.61h118.46a1.37 1.37 0 0 0 1.26-1.91q-0.6-1.41-1.36-2.3c-7.77-9.07-15.22-18.56-22.43-26.91q-10.83-12.53-20.29-24.29a1.34 1.34 0 0 0-2.1 0l-20.01 25a0.37 0.36 44.6 0 1-0.57 0l-31.53-38.26a1.59 1.59 0 0 0-2.46 0.01l-54.56 67.03a0.67 0.66 56.7 0 0-0.12 0.61q0.22 0.8 1.41 1a0.62 0.62 0 0 1 0.39 0.99l-4.09 5.25c-0.71-4.51 0.32-8.4 2.94-12.28 2.98-4.41 3.54-9.14 5.75-14.35q5.97-14.12 7.37-16.34 7.23-11.53 11.57-16.7c5.18-6.17 9.4-11.92 14.99-17.02q4.43-4.05 9.1-7.86 26.97-21.18 60.52-26.99c7.76-1.34 16.49-1.52 24.72-1.8q8.96-0.3 14.69 0.76-5.43 14.62 1.12 27.61c8.06 15.99 18.74 30.25 29.19 45.18q0.51 0.72 1.05 1.03a1.92 1.91 32.1 0 0 2.5-0.57c9.8-13.96 21.29-29.36 29.41-45.49q0.86-1.7 1.91-4.81 2.37 2.58 4.05 3.18 11.48 4.07 26.89 9.54c10.74 3.81 21.28 4.07 33.21 3.58q13.26-0.55 27.31-6.19 17.01-6.83 28.14-13.31c10.88-5.38 21.76-10.55 33.51-14.23 5.35-1.68 10.27-1.7 15.83-3.21q6.33-1.71 11.45-2.1 0.66-0.05 1.17-0.88 0.35-0.58 0.89-0.65 0.55-0.08 1.17 0.14z" fill="#c1e8ef"/> <path d="m728.4 259.32q7.88 4.54 13.02 11.3-22.38-5.92-37.07 9.71-5.92 6.3-7.77 14.28a1.09 1.08 6.7 0 1-1.06 0.83h-29.29a0.95 0.94-1.9 0 1-0.95-0.88l-2.22-30.43a0.53 0.52-2 0 1 0.53-0.56h5.14a1.58 1.56 10.2 0 0 1.47-1.01q2.67-7.04 6.97-19.13 0.41-1.15 0.4-2.33a1.34 1.34 0 0 0-1.34-1.34h-8.44a0.3 0.28-29.3 0 1-0.13-0.03q-0.9-0.44-1.06-2.52 5.96-0.35 9.03 0.41c5.72 1.4 12.18 2.47 17.2 3.96q19.41 5.74 35.57 17.74z" fill="#c1e8ef"/> <path d="m634.56 259.91-5.46-16.01a0.59 0.59 0 0 1 0.55-0.78h43.14a0.59 0.59 0 0 1 0.56 0.78l-5.5 16.01a0.59 0.59 0 0 1-0.56 0.4h-32.17a0.59 0.59 0 0 1-0.56-0.4z" fill="#6980de"/> <path d="m569.42 244.44 3.53 11.53q-11.13 6.48-28.14 13.31-14.05 5.64-27.31 6.19c-11.93 0.49-22.47 0.23-33.21-3.58q-15.41-5.47-26.89-9.54-1.68-0.6-4.05-3.18 2.24-6.3 1.43-14.47 10.84 2.52 21.2 5.87 3.02 0.98 14.68 3.22c13.28 2.54 26.8 2.52 39.64 0.54q19.6-3.02 39.12-9.89z" fill="#a7d5df"/> <path d="m813.54 248.61q3.39 4.05 6.33 8.52c14.25 21.64 22.07 46.06 22.55 72.11q0.67 36.29-16.31 69.69-16.07-4.55-32.75-3.49l0.12-98.73a1.29 1.29 0 0 0-1.29-1.29h-27.49a0.85 0.84-8.3 0 1-0.81-0.6q-5.42-17.76-22.47-24.2-5.14-6.76-13.02-11.3c19.93-3.54 35.1-4.78 58.04-6.69q11.46-0.96 27.1-4.02z" fill="#a7d5df"/> <path d="m205.19 256.81c27.95 1.2 55.58 1.61 83.05 7.44q-4.67 3.81-9.1 7.86c-5.59 5.1-9.81 10.85-14.99 17.02q-4.34 5.17-11.57 16.7-1.4 2.22-7.37 16.34c-2.21 5.21-2.77 9.94-5.75 14.35-2.62 3.88-3.65 7.77-2.94 12.28l-2.85 8.54a1.64 1.62-1.7 0 1-0.95 1l-42.52 16.51q-2.22-5.12-2.75-7.03c-10.59-38.07-4.02-78.17 17.74-111.01z" fill="#a7d5df"/> <path d="m667.8 374.88a0.46 0.46 0 0 1-0.46 0.49h-30.12a0.98 0.98 0 0 1-0.98-0.98q-0.04-27.35 2.2-51.75c2.02-22.03 2.75-36.97 4.47-58.65a0.44 0.44 0 0 1 0.44-0.4h15.94a0.45 0.44-2 0 1 0.45 0.41l8.06 110.88z" fill="#6980de"/> <path d="m730.31 360.38q-0.22 0-0.5-0.38-11.66-16.17-20.51-29.97-5.7-8.86-7.81-13.98-7.7-18.65 5.28-33.76c5.74-6.67 14.61-10.36 23.24-10.39 8.62-0.04 17.52 3.58 23.31 10.21q13.11 15 5.56 33.71-2.07 5.13-7.69 14.04-8.75 13.88-20.27 30.13-0.28 0.39-0.61 0.39z" fill="#f06052"/> <path d="m271.32 468.19-33.99-12.5q-0.99-0.61-3.2 0.21-34.24 12.8-48.54 18.3a1.48 1.48 0 0 1-2.01-1.38v-94.07a2.17 2.17 0 0 1 1.43-2.04l5.19-1.86 42.52-16.51a1.64 1.62-1.7 0 0 0.95-1l2.85-8.54 4.09-5.25a0.62 0.62 0 0 0-0.39-0.99q-1.19-0.2-1.41-1a0.67 0.66 56.7 0 1 0.12-0.61l54.56-67.03a1.59 1.59 0 0 1 2.46-0.01l31.53 38.26a0.37 0.36 44.6 0 0 0.57 0l20.01-25a1.34 1.34 0 0 1 2.1 0q9.46 11.76 20.29 24.29c7.21 8.35 14.66 17.84 22.43 26.91q0.76 0.89 1.36 2.3a1.37 1.37 0 0 1-1.26 1.91h-118.46a0.38 0.38 0 0 0-0.3 0.61c1.07 1.37 2.36 2.61 3.52 4.49q6.62 10.78 1.6 22.81a0.75 0.75 0 0 0 0.45 0.99l5.78 1.99a1.08 1.05 43.5 0 0 0.71-0.01l50.81-18.78a1.11 1.11 0 0 1 1.49 1.04v96.81a1.99 1.98-10.2 0 1-1.3 1.86l-50.34 18.61a4.03 4.02 45.1 0 1-2.84-0.01l-12.78-4.8z" fill="#070807"/> <path d="m293.36 280.35q0.26 0.87 0.11 2.64-2.56 29.48-3.97 55.62a0.42 0.42 0 0 1-0.42 0.4l-18.48 0.3a2.99 2.88-34.8 0 1-0.93-0.15q-3.23-1.11-3.94-1.36-9.91-3.47-19.19 0.86a0.5 0.5 0 0 1-0.6-0.77l46.92-57.64a0.29 0.29 0 0 1 0.5 0.1z" fill="#fadb70"/> <path d="m292.89 338.85 3.64-58.03a0.34 0.34 0 0 1 0.6-0.19l47.8 58.02a0.34 0.34 0 0 1-0.26 0.56h-51.44a0.34 0.34 0 0 1-0.34-0.36z" fill="#fadb70"/> <path d="m497.51 289.83a8.17 8.17 0 0 1-8.17 8.17 8.17 8.17 0 0 1-8.17-8.17 8.17 8.17 0 0 1 8.17-8.17 8.17 8.17 0 0 1 8.17 8.17z" fill="#070807"/> <path d="m711.26 296.32a20.1 19.9-159.9 0 1 25.715-11.78 20.1 19.9-159.9 0 1 12.037 25.596 20.1 19.9-159.9 0 1-25.715 11.78 20.1 19.9-159.9 0 1-12.037-25.596z" fill="#070807"/> <path d="m494.13 289.83a4.78 4.78 0 0 1-4.78 4.78 4.78 4.78 0 0 1-4.78-4.78 4.78 4.78 0 0 1 4.78-4.78 4.78 4.78 0 0 1 4.78 4.78z" fill="#fff"/> <path d="m720.03 289.98a16.75 16.56-127.4 0 1 23.329 3.2483 16.75 16.56-127.4 0 1-2.982 23.364 16.75 16.56-127.4 0 1-23.329-3.2483 16.75 16.56-127.4 0 1 2.982-23.364z" fill="#fff"/> <path d="m349.3 338.78 1.42-44.88a0.42 0.42 0 0 1 0.75-0.25l36.96 44.87a0.42 0.42 0 0 1-0.32 0.69h-38.39a0.42 0.42 0 0 1-0.42-0.43z" fill="#fadb70"/> <path d="m330.26 315.05 16.26-20.32a0.45 0.45 0 0 1 0.8 0.3l-1.21 38.59a0.45 0.45 0 0 1-0.8 0.27l-15.05-18.27a0.45 0.45 0 0 1 0-0.57z" fill="#fadb70"/> <path d="m523.4 369.88a1.37 1.36-39.9 0 1-2.06-0.18q-8.94-12.55-11.96-26.38c-1.33-6.14-1.26-13.24 2.45-18.51 1.42-2.04 4.21-3.5 5.92-4.85a1.95 1.94-18 0 0 0.75-1.47c0.28-8.72 7.57-13.67 15.78-14.01q5.29-0.22 16.08-0.28c4.07-0.02 7.53-2.88 11.07-6.69a4.09 3.77 2.3 0 1 0.67-0.57q3.16-2.18 7.25-1.79 10.08 0.97 14.67 9.21c2.67 4.81 3.65 11.52 1.07 16.68-2.28 4.57-7.87 6.91-12.86 7.55q-3.36 0.43-14.21-0.14c-8.46-0.44-13.64 1.1-12.9 10.93q0.31 4.04 0.9 8.38a1.68 1.67-3.9 0 1-1.66 1.9h-0.81a1.71 1.7-4.3 0 1-1.69-1.44c-0.75-4.76-2.28-8.53-7.34-9.97-7.98-2.25-14.19 3-14.22 11q-0.03 8.87 8.12 12.02a0.43 0.43 0 0 1 0.24 0.57q-2.26 5.11-5.26 8.04z" fill="#6980de"/> <path d="m671.32 375.42a0.28 0.28 0 0 1-0.28-0.26l-5.46-75.15a1.09 1.08 87.8 0 1 1.08-1.17h28.15a0.7 0.7 0 0 1 0.7 0.77q-1.26 11.39 4.78 21.86 6.99 12.14 12.75 20.26a1.13 1.13 0 0 1 0.04 1.27c-4.13 6.5-6.83 14.12-10.78 23.03q-2.18 4.93-7.24 7.69-3.19 1.74-10.49 1.59-1.83-0.04-13.25 0.11z" fill="#64cb91"/> <path d="m760.57 322.06a0.53 0.53 0 0 1-0.39-0.79q6.11-10.41 4.77-21.94a0.43 0.43 0 0 1 0.43-0.48h24.34a0.63 0.63 0 0 1 0.63 0.63v36.48a1.14 1.14 0 0 1-1.22 1.14c-8.12-0.57-11.12-6.87-17.54-11.06q-4.86-3.18-11.02-3.98z" fill="#64cb91"/> <path d="m715.87 346.13 13.39 18.26a1.44 1.44 0 0 0 2.1 0.24q0.61-0.52 1.3-1.47 13.84-19.12 25.28-37.46a0.77 0.76-69.5 0 1 0.77-0.36q8.13 1.19 12.45 4.58c5.45 4.27 10.89 9.94 18.06 10.49a0.8 0.79-88.1 0 1 0.74 0.8v16.17a0.83 0.82 87.8 0 1-0.76 0.83c-8.51 0.63-14.18 6.1-13.34 14.84q0.65 6.63 0.66 7.68c0.1 6.81-4.62 9.99-10.89 9.73-11.52-0.48-18.11 2.27-18.08 15.1q0.01 6.15-3.74 11.24a2.01 2 18.2 0 1-1.61 0.81h-31.56a2.16 2.16 0 0 1-1.81-0.98q-0.92-1.39-8.01-11.39c-7.15-10.09-11.52-15.81-23.56-15.55q-6.19 0.12-19.25 0.52c-9.98 0.31-14.58 5.35-19.7 12.88a0.97 0.97 0 0 1-1.73-0.26q-0.41-1.33-0.37-2.33 0.4-10.61 0.28-21.07a0.69 0.69 0 0 1 0.71-0.69c8.59 0.2 17.4-0.51 25.75-0.31q20.01 0.46 25.26 0.16c8.87-0.51 14.65-5.61 18.02-13.61 2.81-6.67 5.14-13.18 8.81-18.82a0.51 0.5-46.8 0 1 0.83-0.03z" fill="#64cb91"/> <path d="m546.06 403.39a0.35 0.35 0 0 1-0.57 0.14q-11.84-11.59-26.37-16.66a0.81 0.8 19.5 0 1-0.49-1.02l3.8-11.03a1.21 1.19 86.5 0 1 0.61-0.7c4.1-2.07 5.93-5.61 9.18-10.76a1.76 1.7-1.5 0 1 0.52-0.53l1.32-0.84a1.86 1.86 0 0 0-0.81-3.42c-2.32-0.23-4.05-0.24-5.53-1.14q-5.14-3.1-4.42-8.69c0.61-4.75 4.32-8.43 9.18-7.64 5.47 0.9 5.06 4.9 6.07 9.06 0.88 3.68 5.74 3.56 8.26 2.16 1.82-1 2.54-2.75 2.4-5.05q-0.2-3.34-0.77-7.76c-0.25-1.95-0.29-5.86 1.94-6.86q2.09-0.94 3.15-0.81 11.57 1.4 22.1-0.69a1.02 1.02 0 0 1 1.21 0.85c0.94 6.1 0.92 10.36 2.15 15.25q0.56 2.19 4.65 9.93 1.23 2.31 1.17 3c-0.19 2.22-3.51 2.77-5.99 3.47a1.71 1.69-5.5 0 0-1.24 1.49q-0.31 3.65-1 6.88c-3.48 16.04-19.49 18.17-32.39 12.5q-2.85-1.26-4.88-3.33a1.35 1.35 0 0 0-2.24 0.5l-0.26 0.76a1.35 1.35 0 0 0 0.37 1.44q5.15 4.74 12.5 6.47a0.74 0.74 0 0 1 0.53 0.96l-4.15 12.07z" fill="#f8c19d"/> <path d="m429.77 343.88a34.54 34.41-133.2 0 1 48.728 1.6233 34.54 34.41-133.2 0 1-1.4395 48.734 34.54 34.41-133.2 0 1-48.728-1.6233 34.54 34.41-133.2 0 1 1.4395-48.734z" fill="#42c0ed"/> <path d="m257.78 339.46c9.56 0.11 17.87 6.94 19.72 16.5 1.48 7.65-1.55 14.7-6.4 22.01q-8.06 12.14-13.39 19.74-0.21 0.31-0.63 0.3-0.42 0-0.62-0.32-5.15-7.72-12.92-20.05c-4.67-7.42-7.54-14.54-5.87-22.15 2.08-9.52 10.54-16.15 20.11-16.03z" fill="#f06052"/> <path d="m568.98 342.74a3.33 2.63-90.9 0 1 2.682 3.2883 3.33 2.63-90.9 0 1-2.5774 3.3709 3.33 2.63-90.9 0 1-2.682-3.2883 3.33 2.63-90.9 0 1 2.5774-3.3709z" fill="#070807"/> <path d="m478.73 369.09a25.36 25.36 0 0 1-25.36 25.36 25.36 25.36 0 0 1-25.36-25.36 25.36 25.36 0 0 1 25.36-25.36 25.36 25.36 0 0 1 25.36 25.36z" fill="#070807"/> <path d="m271.6 360.08a14.12 14.12 0 0 1-14.12 14.12 14.12 14.12 0 0 1-14.12-14.12 14.12 14.12 0 0 1 14.12-14.12 14.12 14.12 0 0 1 14.12 14.12z" fill="#070807"/> <path d="m475.52 368.99a22.19 22.19 0 0 1-22.19 22.19 22.19 22.19 0 0 1-22.19-22.19 22.19 22.19 0 0 1 22.19-22.19 22.19 22.19 0 0 1 22.19 22.19z" fill="#42c0ed"/> <path d="m268.27 360.02a10.82 10.82 0 0 1-10.82 10.82 10.82 10.82 0 0 1-10.82-10.82 10.82 10.82 0 0 1 10.82-10.82 10.82 10.82 0 0 1 10.82 10.82z" fill="#fff"/> <path d="m440.43 367.34a13.02 12.84-172.3 0 1 14.623-10.98 13.02 12.84-172.3 0 1 11.182 14.469 13.02 12.84-172.3 0 1-14.623 10.98 13.02 12.84-172.3 0 1-11.182-14.469z" fill="#070807"/> <path d="m334.49 359.53a0.49 0.49 0 0 1 0.66 0.46v26.42a1.18 1.17-12.8 0 1-0.67 1.06l-6.46 3.04a2.81 2.76-55.5 0 1-1.34 0.26c-4.79-0.26-8.08-2.2-12.14-4.78-5.7-3.63-12.13-3.42-18.07 0.03-2.66 1.55-5.02 3.99-7.96 4.73-6.53 1.64-12.45-1.36-16.96-5.63a0.85 0.84 37 0 1-0.15-1.03l5.34-9.26a0.76 0.76 0 0 1 0.92-0.33l6.65 2.38a4.84 4.81-45.2 0 0 3.3-0.02l46.88-17.33z" fill="#42c0ed"/> <path d="m463.22 368.58a9.99 9.8-3.3 0 1-9.4093 10.359 9.99 9.8-3.3 0 1-10.538-9.2086 9.99 9.8-3.3 0 1 9.4093-10.359 9.99 9.8-3.3 0 1 10.538 9.2086z" fill="#42c0ed"/> <path d="m747.77 417.62a0.34 0.34 0 0 1-0.28-0.53q2.24-3.34 3.12-6.99c1.36-5.63-1.92-12.9 5.6-15.72 2.74-1.03 7.54-0.03 10.39-0.27q11.29-0.94 12.95-10.92c0.63-3.77-0.48-7.98-0.7-11.68-0.4-6.62 4.86-9.53 10.77-9.64a0.61 0.6 89.5 0 1 0.61 0.61v54.77a0.37 0.37 0 0 1-0.37 0.37h-42.09z" fill="#fadb70"/> <path d="m199.32 419.22-4.58-0.06a1.45 1.45 0 0 0-0.9 0.29q-5.76 4.32-6.82 11.51l-0.36-49.67a2.26 2.24-10.4 0 1 1.47-2.12l44.8-16.56a0.36 0.35 68.8 0 1 0.46 0.21l3.98 10.78a0.74 0.74 0 0 1-0.64 1c-6.51 0.45-14.23 0.93-16.78 7.78a1.4 1.13-39.1 0 0-0.08 0.38l-0.43 4.25a3.13 3.12-19.7 0 1-0.9 1.9q-2.9 2.93-3.14 3.2c-2.8 3.2-0.8 8.06 0.61 11.43a1.83 1.81 38.1 0 1 0.12 0.95q-0.36 2.58-3.15 2.66c-3.59 0.11-8.22-1.2-11.93 1.58q-5.15 3.87-1.73 10.49z" fill="#6980de"/> <path d="m488.63 383.26-11.85 44.51a0.8 0.78-85.9 0 1-0.65 0.58c-6.55 0.89-13.38 0.07-19.94 0.27q-9.16 0.27-11.89 0.27c-21.56-0.04-38.17-0.09-53.39 0.38a0.8 0.79 7.2 0 1-0.79-1.01q3.85-13.28 5.34-19.12c2.26-8.86 4.42-20.57 7.74-29.2q3.14-8.16 11.29-11.95a0.64 0.64 0 0 1 0.91 0.55c0.34 6.76 1.93 14.08 5.79 20.02 14.78 22.73 46.03 25.29 62.77 2.49 2-2.73 2.84-5.26 4.32-7.93a0.19 0.19 0 0 1 0.35 0.14z" fill="#f06052"/> <path d="m257.6 402.59a1.12 1.11 74.6 0 1 1.39 0.79q1.85 7.03 7.97 9.64c3.59 1.54 9.31 3.1 14.09 4.4 7.38 2.01 18.88 2.82 23.94-3.97q2.7-3.61 3.16-4.46a3.37 3.36-3.5 0 1 1-1.13q6.61-4.61 11.55 1.68 3.59 4.56 2.46 10.82-0.54 2.98-5.2 7.73-0.94 0.97-6.68 8.11c-2.36 2.94-6.67 7.89-10.21 11.07-7.83 7.04-17.59 5.4-24.88-1.73-5.73-5.59-10.56-10.17-16.29-14.18-5.19-3.64-11.1-4.18-16.49-0.54-2.75 1.86-4.5 4.74-5.93 7.43-2.35 4.42-6.83 0.02-8.16-2.86-3.56-7.73-7.45-15.14-15.86-16.14q-4.2-0.51-9.47-0.9c-2.14-0.17-3.43-2.43-2.54-4.59 2.28-5.58 9.85-2.05 14.16-3.99 3.8-1.71 4.15-5.5 2.61-9.14q-0.92-2.19-1.27-3.99a3.02 3.01 62.7 0 1 0.88-2.77c2.63-2.48 4.91-3.18 5.25-7.96 0.52-7.24 9.91-8.39 15.79-8.21a0.7 0.69 73.4 0 1 0.55 0.3l15.79 23.45a3.18 3.09 1.2 0 0 0.79 0.8q0.81 0.57 1.6 0.34z" fill="#64cb91"/> <path d="m326.26 394.47q-3.28 1.93-4.45 5.29a4.31 4.31 0 0 1-4 2.89q-1.76 0.03-4.99 0.23-4.7 0.81-7.29 4.4c-3.44 4.76-4.93 6.94-11.29 7.93-9.03 1.41-17.99-2.41-26.61-5.6-3.88-1.43-5.25-5.69-6.13-9.4q-0.35-1.46 0.92-3.29 4.7-6.75 6.36-8.98a0.55 0.55 0 0 1 0.81-0.08c6.88 6.33 16.06 9.08 24.47 3.58 4.74-3.1 8.67-5.31 14.44-4.45q0.91 0.14 7.39 3.47 4.62 2.37 10.37 4.01z" fill="#42c0ed"/> <path d="m542.15 465.31q-0.32-0.47-0.36-0.86c-0.6-5.75-2.03-15.5-2.63-23.17q-0.39-4.9-1.3-11.57-2.14-15.73-15.48-22.85-2.54-1.35-8.54-4.18c-8.13-3.84-15.9-5.32-24.8-4.74a0.63 0.62-85.5 0 1-0.65-0.77l2-8.79a0.86 0.86 0 0 1 0.86-0.66q18.51 0.56 34.08 9.96 5.16 3.11 9.47 8.26c10.36 12.38 14.37 26.1 12.2 41.9q-1.3 9.46-4.23 17.4a0.35 0.35 0 0 1-0.62 0.07z" fill="#f06052"/> <path d="m513.85 388.67q25.87 6.94 38.27 29.88c4.19 7.76 5.13 16 6.53 25.17q0.89 5.83 0.73 14.49c-0.16 8.4 0.18 15.31-1.15 22.94a0.6 0.59 6.5 0 1-0.62 0.49l-13.96-0.87a0.52 0.52 0 0 1-0.48-0.48l-0.52-7.17a2.05 1.95 56.6 0 1 0.18-1q5.77-12.26 7.26-22.13 1.71-11.31-1.56-24.65-3.14-12.85-11.53-21.67-9.66-10.16-23.23-14.75a0.13 0.13 0 0 1-0.08-0.16v-0.01a0.14 0.13 16.8 0 1 0.16-0.08z" fill="#42c0ed"/> <path d="m235.29 451.89-2.34-8.83c7.27 0.44 8.32-5.89 11.79-8.79 5.4-4.5 11.91-2.38 16.52 1.98q10.64 10.07 15.51 14.25 3.79 3.25 8.67 4.05 11.82 1.95 19.91-6.96 11.41-12.55 13.33-15.15 1.17-1.58 3.91-5.12c4.39-5.68 5.74-12.03 1.97-18.51-2.39-4.1-7.03-6.26-11.74-5.93q3.23-0.2 4.99-0.23a4.31 4.31 0 0 0 4-2.89q1.17-3.36 4.45-5.29l8.63-3.88a0.28 0.28 0 0 1 0.4 0.26v59.81a1.15 1.14-10.4 0 1-0.74 1.07l-47.54 17.57a4.53 4.47-43.6 0 1-3.3-0.06q-24.06-9.98-48.42-17.35z" fill="#6980de"/> <path d="m826.11 398.93q-7.25 13.51-13.85 27.68-6.54 14.05-12.8 31.09-3.81 10.39-6.32 21.44-5.04 22.21 0.01 45.69 4.54 21.16 12.96 39.41a2.88 2.66 30.2 0 1 0.21 0.68q0.22 1.19-0.1 1.25l-31.36 11.76q-11.89-21.39-17.49-36.05-5.89-15.41-7.74-38.11c-0.29-3.43-0.65-7.11 0.11-10.3q1.02-4.26 1.29-6.01 2.08-13.71 6.22-24.99 5.4-14.7 14.12-33.83 0.28-0.61 1.92-3.73 1.03-1.95 1.63-3.87l17.39-0.14a1.14 1.14 0 0 0 1.13-1.14l-0.08-24.32q16.68-1.06 32.75 3.49z" fill="#c3d3c5"/> <path d="m641.45 404.58a0.4 0.4 0 0 1-0.27-0.63c4.19-5.78 9.06-10.35 16.56-10.53q14.62-0.36 23.03 0.04 8.28 0.39 13.19 7.92 5.77 8.85 11.1 15.6a0.29 0.29 0 0 1-0.23 0.47h-23.32a0.97 0.97 0 0 1-0.94-0.72q-1.53-5.65-7.22-6.81-16.51-3.36-31.9-5.34z" fill="#fadb70"/> <path d="m506.88 403.94c-12.06 0.7-22.05 9.76-25.1 21.1q-1.4 5.18-1.1 12.73 1.1 28.2 6.01 57.03a1.74 1.73 69.5 0 1-0.8 1.76q-11.61 7.08-23.61 10.75-0.82 0.25-1.37 0.19a0.81 0.8 10.4 0 1-0.69-0.99q1.91-7.54 5.59-20.46c1.79-6.28 2.8-13.52 4.7-19.78 3.46-11.39 5.52-22.39 8.41-33.31q4.29-16.22 7.05-27.68 0.51-2.13 1.28-4.03a0.9 0.89 10.1 0 1 0.8-0.55q9.9-0.3 18.91 2.6a0.33 0.33 0 0 1-0.08 0.64z" fill="#42c0ed"/> <path d="m595.44 485.03a2.54 2.52-62.6 0 1-0.7-2.23q5.33-29.92 5.91-33.64c2.08-13.45 5.24-27.47 6.98-38.6 0.85-5.44 2.49-8.76 8.45-7.7 18.56 3.28 40.42 7.75 55.9 9.93 7.31 1.02 5.81 7.75 4.54 12.7a0.55 0.55 0 0 1-0.69 0.39q-23.42-6.78-42.71-13.11-6.19-2.03-8.78-1.45c-4.82 1.08-6.16 3.62-7.65 8.43q-10.71 34.53-19.83 64.97a0.83 0.83 0 0 1-1.38 0.35l-0.04-0.04z" fill="#fff"/> <path d="m598.74 532.05a0.48 0.48 0 0 1-0.5 0.47q-17.72-0.64-26.84-1.16-18.79-1.07-21.45-1.17-11.54-0.46-21.46-1.04c-9.59-0.57-17.06-2.11-23.8-7.8-3.87-3.26-7.76-7.15-10.17-12.01-3.88-7.82-5.48-15.57-6.49-24.34q-1.53-13.35-4.16-38.99c-1.46-14.25 0.66-31.78 16.45-37.49q9.89-3.58 19.77 0.77 9.31 4.1 13.15 14.67 1.19 3.28 2.26 12.55c1.27 11.08 2.48 28.02 4.79 44.48q0.38 2.71 2.93 2.96 13.73 1.31 15.03 1.35 11.39 0.38 22.25 1.73 10.45 1.3 18.29 1.62a1.33 1.33 0 0 1 1.28 1.37l-1.33 42.03z" fill="#42c0ed"/> <path d="m632.44 533.54c3.06-0.26 7.28 0.12 11.27-0.5 4.87-0.76 7.12-5.23 4.95-9.64a0.47 0.46-15.4 0 1 0.38-0.66c5.58-0.48 9.62-5.25 6.29-10.61a0.53 0.53 0 0 1 0.27-0.78q4.74-1.78 3.98-7.48-0.54-4.07-4.41-5.11a0.59 0.58 15.6 0 1-0.41-0.71c1.51-5.59-1.42-9.57-7.48-9.46q-10.13 0.18-18.89 1.39a0.23 0.22 15.9 0 1-0.21-0.37c1.36-1.56 4.12-3.71 5.23-5.65 3.79-6.62-3.65-14-10.25-8.77q-8.84 7.01-18.86 12.06a1.13 1.11-48.6 0 1-0.86 0.06l-2.99-1.08a0.55 0.55 0 0 1-0.35-0.68q4.19-14.63 6.01-20.21c2.95-9.03 5.37-18.86 8.35-27.37 2.14-6.11 4.17-13.51 5.48-18.11 1.49-5.23 4.87-6.42 9.53-4.91 18.67 6.04 37.98 11.61 53.3 16.45 3.66 1.16 5.34 2.14 5.84 5.62q0.16 1.09-0.54 3.43-13.69 46.37-27.47 95.62c-1.27 4.55-4.65 5.33-8.89 3.81q-7.43-2.65-19.31-5.86a0.25 0.24 49.9 0 1 0.04-0.48z" fill="#fff"/> <path d="m199.32 419.22c3.15 3.5 8.74 3.04 14.67 3.47q3.62 0.26 6.71 3.87c4.41 5.15 3.9 13.63 12.25 16.5l2.34 8.83-47.2 17.58a0.74 0.74 0 0 1-1-0.69l-0.07-37.82q1.06-7.19 6.82-11.51a1.45 1.45 0 0 1 0.9-0.29l4.58 0.06z" fill="#42c0ed"/> <path d="m774.92 421.04q-0.6 1.92-1.63 3.87-1.64 3.12-1.92 3.73-8.72 19.13-14.12 33.83-4.14 11.28-6.22 24.99-0.27 1.75-1.29 6.01c-0.76 3.19-0.4 6.87-0.11 10.3q1.85 22.7 7.74 38.11 5.6 14.66 17.49 36.05l-16.2 6.11a0.71 0.7-12 0 1-0.96-0.62c-0.81-16.06-13.05-28.86-28.37-31.21q-19.57-3.01-32.19 12.83-3.61 4.54-5.29 10.77a0.88 0.87 17.6 0 1-1.14 0.59l-20.81-7.45a2.27 2.25-45.2 0 0-1.58 0.01l-64.63 23.89a1.62 1.62 0 0 0-1.06 1.52q0.15 60.84-0.06 83.95c-0.12 12.75 0.48 22.25 0.23 33.72-0.04 1.85 0.47 3.73 2.76 3.02q2.78-0.88 5.4-1.87 30.35-11.52 58.12-21.2a1.95 1.95 0 0 1 1.3 0l65.03 23.29a3.36 3.32-44.7 0 0 2.27 0l31.29-11.12q-4.31 9.17-11.21 16.75-14.87 18.58-35.33 31.19c-5.42 3.34-12.39 6.59-17.77 9.04-12.25 5.59-25.67 8.29-40.73 9.99-3.22 0.36-5.67 0.08-8.74-0.31-8.16-4.15-15.41-1.34-23.75-0.47a5.29 5.23 48.6 0 1-1.9-0.13q-7.85-1.95-14.45-5.34a1.84 1.8-30.1 0 0-0.79-0.2l-2.72-0.09a0.95 0.94-2 0 1-0.92-0.85l-0.33-3.12a0.73 0.73 0 0 1 0.5-0.77l1.38-0.48a1.73 1.73 0 0 0 1.12-2.05c-3.72-15.07-10.18-36.49-14.32-52.17q-6.69-25.29-14.6-53.58-1.53-5.45-2.97-9.25-17.03-44.81-31.18-83.25a0.51 0.5-9.1 0 1 0.5-0.68q1.96 0.1 3.1-0.88a1.63 1.61-18 0 0 0.56-1.08l2.18-22.03a0.28 0.28 0 0 1 0.29-0.26l43.81 1.38a1.2 1.19-86.2 0 0 1.23-1.08l0.2-2.02a0.67 0.66 5.5 0 1 0.74-0.6l17.03 2.01a3.32 2.68 49.1 0 1 0.42 0.09q6.46 2.03 29.37 8.56 5.66 1.61 7.7 0.83c3.87-1.47 5.23-3.36 6.49-7.74q13.1-45.22 22.69-79.25 1.99-7.06 3.75-12.4 2.08-6.3 1.39-8.69c-1.67-5.8-5.96-6.42-11.56-7.93a0.77 0.76 12.6 0 1-0.56-0.88l0.89-5.15a0.55 0.55 0 0 1 0.54-0.45l93.9 0.22z" fill="#c1e8ef"/> <path d="m644.83 434.91a10.77 10.77 0 0 1-10.77 10.77 10.77 10.77 0 0 1-10.77-10.77 10.77 10.77 0 0 1 10.77-10.77 10.77 10.77 0 0 1 10.77 10.77z" fill="#070807"/> <path d="m639.46 431.36a1.19 1.19 0 0 1 2.05 0.65q1.1 8.14-5.56 10.1c-4.04 1.19-7.81-0.94-9-4.63q-2.36-7.33 4.87-9.81 3.74-1.29 7.07 1.35a0.94 0.94 0 0 1-0.04 1.5c-1.94 1.37-3.52 0.07-5.31 0.45q-1.42 0.3-1.58 1.89-0.4 3.74 1.81 6.02a0.97 0.97 0 0 0 1.67-0.67v-1.62a1.08 1.08 0 0 1 0.48-0.9c2.03-1.35 2.32-3.03 3.54-4.33z" fill="#fff"/> <path d="m475.2 432.14a0.65 0.65 0 0 1 0.63 0.8q-1.67 7.17-3.66 13.28-1.26 3.88-3.21 13.41-1.52 7.43-4.36 17c-2.51 8.44-4.18 17.95-6.81 27.14q-2.52 8.83-3 10.98-2.8 12.65-8.61 35.39-1.04 4.06-4.78 6.26c-5.36 3.14-9.75 3.08-16.22 1.35q-22.06-5.88-33.46-8.42-11.05-2.47-14.75-5.07c-8.94-6.3-11.73-16.89-9.25-27.53q2.51-10.72 14.04-54.7c2.38-9.06 4.73-19.29 7.32-29.39a0.67 0.67 0 0 1 0.65-0.5h85.47z" fill="#f06052"/> <path d="m679.54 443.27a1.29 1.29 0 0 1-1.6108 0.8564l-22.703-6.9409a1.29 1.29 0 0 1-0.8565-1.6108l0.1345-0.4399a1.29 1.29 0 0 1 1.6108-0.8564l22.703 6.9409a1.29 1.29 0 0 1 0.8565 1.6108l-0.1345 0.4399z" fill="#070807"/> <path d="m364.88 514.98a0.23 0.23 0 0 1-0.28 0.16l-0.12-0.03a17.5 17.05-75.5 0 1-12.12-21.21l10.26-39.68a17.5 17.05-75.5 0 1 20.89-12.67l0.11 0.03a0.23 0.23 0 0 1 0.17 0.28l-18.91 73.12z" fill="#f06052"/> <path d="m676.23 453.51a1.1 1.1 0 0 1-1.3736 0.7303l-22.951-7.0169a1.1 1.1 0 0 1-0.7303-1.3735l0.2806-0.9181a1.1 1.1 0 0 1 1.3736-0.7303l22.951 7.0169a1.1 1.1 0 0 1 0.7303 1.3735l-0.2806 0.9181z" fill="#070807"/> <path d="m672.05 466.32a1.58 1.58 0 0 1-1.9711 1.0525l-49.582-15.064a1.58 1.58 0 0 1-1.0524-1.9711l0.0116-0.0382a1.58 1.58 0 0 1 1.9711-1.0525l49.582 15.064a1.58 1.58 0 0 1 1.0524 1.9711l-0.0116 0.0382z" fill="#070807"/> <path d="m595.51 454.84a0.4 0.4 0 0 1 0.68 0.35l-4.9 28.1a1.65 1.64-84.1 0 1-1.66 1.36q-2.38-0.06-3.37-0.93a0.93 0.89-72.3 0 1-0.3-0.61l-1.59-18.59a1.33 1.33 0 0 1 0.63-1.25q5.31-3.19 10.51-8.43z" fill="#f8c19d"/> <path d="m271.32 468.19q1.36 5.07 2.54 9.82 1.38 5.59 1.9 9.97 2.89 23.88-3.73 47c-0.94 3.27-2.72 6.96-3.82 10.62l-28.47-9.99q0.37-2.37 2.08-8.05 1.45-4.82 3.14-17.02 2.14-15.47-1.4-30.66-2.73-11.7-6.23-24.19l33.99 12.5z" fill="#c3d3c5"/> <path d="m426.04 463.26q12.24 3.16 26.04 6.71a1.66 1.65-75.2 0 1 1.18 2.04q-7.85 29.27-12.39 48.55-2.03 8.63-4.06 10.56-4.25 4.03-10.76 2.7-3.74-0.76-17.14-4.22t-17.04-4.6q-6.34-1.99-8.11-7.58-0.84-2.67 1.56-11.2 5.36-19.07 12.66-48.48a1.66 1.65-75.8 0 1 2.02-1.21q13.79 3.57 26.04 6.73z" fill="#070807"/> <path d="m668.86 476.39a1.39 1.39 0 0 1-1.7276 0.938l-49.782-14.746a1.39 1.39 0 0 1-0.938-1.7275l0.1079-0.3644a1.39 1.39 0 0 1 1.7276-0.938l49.782 14.746a1.39 1.39 0 0 1 0.938 1.7275l-0.1079 0.3644z" fill="#070807"/> <path d="m445.83 487.96a0.76 0.76 0 0 1-0.927 0.5439l-47.65-12.412a0.76 0.76 0 0 1-0.5439-0.9271l3.8163-14.651a0.76 0.76 0 0 1 0.927-0.5439l47.65 12.412a0.76 0.76 0 0 1 0.5439 0.9271l-3.8163 14.651z" fill="#f06052"/> <path d="m602.1 527.86 1.14-36.14a0.72 0.71 79.2 0 1 0.42-0.62c7.91-3.54 12.08-6.79 22.79-13.95a2.75 2.74 61.2 0 1 4.04 1.18l0.03 0.08a4.35 4.34-34.8 0 1-0.87 4.83l-7.99 8.12a1.29 1.29 0 0 0 1.02 2.2l25.35-2.03a3.57 3.55-7.3 0 1 3.79 2.91l0.03 0.15a3.25 3.25 0 0 1-2.8 3.89l-19.08 2.29a1.68 1.67 84.6 0 0-1.47 1.78l0.03 0.35a1.26 1.25-4.9 0 0 1.38 1.16l22.81-2.37a3.35 3.35 0 0 1 3.68 2.98l0.03 0.31a3.29 3.28-5.9 0 1-2.93 3.6l-23.53 2.44a1.52 1.52 0 0 0-1.36 1.6l0.04 0.32a1.47 1.47 0 0 0 1.57 1.26l19.85-1.44a2.57 2.56 89 0 1 2.75 2.66l-0.02 0.38a3.87 3.87 0 0 1-3.6 3.72l-19.25 1.34a1.58 1.57-2.1 0 0-1.47 1.58v0.22a1.63 1.62-3.2 0 0 1.75 1.56l12.86-1a3.06 3.06 0 0 1 3.29 3.17v0.13a3.77 3.77 0 0 1-3.69 3.61c-14.87 0.3-26.58 0.54-39.92-1.48a0.78 0.77 5 0 1-0.67-0.79z" fill="#f8c19d"/> <path d="m444.09 491.41a0.93 0.93 0 0 1 0.67 1.13l-8.15 31.99a8.91 8.58 14.3 0 1-10.76 6.11l-32.15-8.2a8.91 8.58 14.3 0 1-6.51-10.51l8.15-31.99a0.93 0.93 0 0 1 1.13-0.67l47.62 12.14z" fill="#f06052"/> <path d="m229.86 500.4a11.96 11.96 0 0 1-11.96 11.96 11.96 11.96 0 0 1-11.96-11.96 11.96 11.96 0 0 1 11.96-11.96 11.96 11.96 0 0 1 11.96 11.96z" fill="#070807"/> <path d="m768.18 498.26a8.18 8.18 0 0 1-8.18 8.18 8.18 8.18 0 0 1-8.18-8.18 8.18 8.18 0 0 1 8.18-8.18 8.18 8.18 0 0 1 8.18 8.18z" fill="#070807"/> <path d="m216.31 491.69a8.83 8.57-100.8 0 1 10.073 7.0677 8.83 8.57-100.8 0 1-6.7636 10.28 8.83 8.57-100.8 0 1-10.073-7.0677 8.83 8.57-100.8 0 1 6.7636-10.28z" fill="#ded1b0"/> <path d="m764.84 498.25a4.86 4.86 0 0 1-4.86 4.86 4.86 4.86 0 0 1-4.86-4.86 4.86 4.86 0 0 1 4.86-4.86 4.86 4.86 0 0 1 4.86 4.86z" fill="#c1e8ef"/> <path d="m456.29 522.12 2.64-9.93a1.84 1.81-89.3 0 1 1.31-1.3c8.32-2.09 18.38-6.06 26.33-11.01a0.75 0.75 0 0 1 1.1 0.38l3.19 8.63a1.36 1.36 0 0 1-0.63 1.67c-5.58 2.98-12.47 6.55-19.08 8.42q-7.17 2.02-14.24 3.77a0.51 0.51 0 0 1-0.62-0.63z" fill="#f06052"/> <path d="m492.33 513.09a0.7 0.69-28.8 0 1 0.93 0.26c5.23 9.02 13.56 14.39 23.39 17.26q4.31 1.25 13.59 1.82 19.84 1.2 22.38 1.36a0.41 0.4-86.5 0 1 0.38 0.44l-1.24 19.87a1.7 1.69-3 0 1-1.42 1.57q-8.45 1.39-31.31 4.89-10.01 1.53-32.6 1.95c-6.59 0.12-13.46-0.78-20.67-1.07-5.85-0.23-10.98-1.31-17.36-2.12a0.72 0.71 10.2 0 1-0.61-0.87l7.06-30.99a1.66 1.65 1.1 0 1 1.31-1.26q18.6-3.56 36.17-13.11z" fill="#42c0ed"/> <path d="m220.54 592.55 12.94 6.48a1.61 1.61 0 0 0 2.05-0.54l0.06-0.07a1.98 1.98 0 0 0-0.94-2.7l-13.98-6.45a1.22 1.2-78.1 0 1-0.71-1.11v-55.36a0.28 0.28 0 0 1 0.37-0.26l61 20.97a0.73 0.72 9.7 0 1 0.49 0.68v46.99a1.04 1.04 0 0 1-0.76 1c-7.63 2.15-13.73 6.25-18.94 12.5a0.78 0.78 0 0 1-1.09 0.12l-7.37-5.9a1 1 0 0 0-1.49 0.27c-0.88 1.48 0.92 2.94 2.13 4.12q1.74 1.69 4.92 4.13a0.98 0.97 34.1 0 1 0.25 1.28c-6.54 10.97-5.31 24.72 0.58 35.79 6.18 11.62 13 21.05 21.02 32.19a3.87 3.85-63.1 0 1 0.73 2.26v43.9a0.27 0.27 0 0 1-0.36 0.26l-61.27-21.07a0.39 0.39 0 0 1-0.26-0.37v-118.72a0.44 0.44 0 0 1 0.63-0.39z" fill="#64cb91"/> <path d="m774.86 577.93 31.36-11.76q1.79 1.14 1.16 2.9l0.07 119.29a2.06 2.06 0 0 1-1.34 1.93l-37.14 13.87-31.29 11.12a3.36 3.32-44.7 0 1-2.27 0l-65.03-23.29a1.95 1.95 0 0 0-1.3 0q-27.77 9.68-58.12 21.2-2.62 0.99-5.4 1.87c-2.29 0.71-2.8-1.17-2.76-3.02 0.25-11.47-0.35-20.97-0.23-33.72q0.21-23.11 0.06-83.95a1.62 1.62 0 0 1 1.06-1.52l64.63-23.89a2.27 2.25-45.2 0 1 1.58-0.01l20.81 7.45a0.88 0.87 17.6 0 0 1.14-0.59q1.68-6.23 5.29-10.77 12.62-15.84 32.19-12.83c15.32 2.35 27.56 15.15 28.37 31.21a0.71 0.7-12 0 0 0.96 0.62l16.2-6.11z" fill="#070807"/> <path d="m724.41 640.27q-0.21 0.01-0.48-0.37-11.25-15.56-19.81-28.85-5.5-8.53-7.55-13.46-7.45-17.96 5.05-32.54c5.52-6.44 14.05-10.01 22.37-10.05 8.32-0.05 16.9 3.42 22.49 9.8q12.65 14.44 5.41 32.48-1.99 4.95-7.4 13.55-8.41 13.38-19.49 29.07-0.27 0.37-0.59 0.37z" fill="#f06052"/> <path d="m285.71 693.64q1.03 1.15 2.59 2.98 0.97 1.15 1.94 1.05 0.54-0.06 1.69-1.67 12.52-17.56 22.04-32.17a0.48 0.48 0 0 1 0.7-0.11l5.62 4.49a0.8 0.79 38.4 0 0 1.12-0.12l0.95-1.18a1 1 0 0 0-0.16-1.4l-5.87-4.7a0.52 0.51 36.4 0 1-0.11-0.69c6.72-10.29 10.59-21.77 6.86-33.82-4.85-15.65-20.56-26.81-37.24-24.75a0.56 0.56 0 0 1-0.63-0.56v-45.18a0.49 0.48-80.6 0 1 0.64-0.46l58.43 20.1a1.3 1.3 0 0 1 0.88 1.23v96.76a0.55 0.54-85.9 0 1-0.62 0.54q-6.88-1.02-13.01-4.03a1.6 1.59-67.7 0 0-2.22 0.93l-0.05 0.16a1.9 1.9 0 0 0 1.1 2.36q7.1 2.85 14.12 3.9a0.73 0.73 0 0 1 0.62 0.71q0.06 40.73 0 71.48c0 2.08-0.77 3.69-2.4 4.64a0.97 0.95-50.1 0 1-0.81 0.08l-56.12-19.29a0.94 0.94 0 0 1-0.63-0.89v-40.17a0.33 0.33 0 0 1 0.57-0.22z" fill="#fadb70"/> <path d="m348.9 747.9a0.32 0.31 68.2 0 1-0.53-0.23v-69.58a0.57 0.56-0.5 0 1 0.56-0.56q20.26-0.3 35.28-15.35a1.57 1.57 0 0 0 0.04-2.18l-0.04-0.05a1.56 1.55 47.8 0 0-2.16-0.11c-2.34 2.04-4.15 3.37-5.82 4.78q-11.76 9.99-27.57 9.65a0.32 0.32 0 0 1-0.32-0.32v-96.95a1.17 1.17 0 0 1 0.79-1.11l56.38-19.25a4.84 4.78-46.7 0 1 2.78-0.1l6.8 1.81a0.4 0.4 0 0 1 0.3 0.39v50.94a1.34 1.3 60.5 0 1-0.17 0.65q-9.06 16.13-16.49 27.84c-3.09 4.87-2.49 9.04-7.6 12.19q-1.43 0.88-1.91 2.03a1.3 1.21 15 0 0 1.05 1.68q2.21 0.32 2.91-1.91 1.18-3.71 3.95-6.79 4.68-5.17 6.86-9.15 5.46-9.93 10.63-18.74a0.41 0.41 0 0 1 0.76 0.17q0.44 5.81 0.36 8.85-0.51 19.2-0.38 38.19a3.31 3.3-25.9 0 1-0.73 2.1l-44.56 55.7a1.85 1.85 0 0 0 0.14 2.47l1.83 1.84a0.99 0.99 0 0 1 0.18 1.15q-1.65 3.19-4.13 2.94-0.68-0.06-1.64 0.7-1.92 1.53-17.55 16.31z" fill="#64cb91"/> <path d="m419.3 559.33c3.57 0.9 9.09 3.01 12.25 3q6.72-0.02 12.58-4.05a0.31 0.31 0 0 1 0.49 0.26v2.3a1.03 1.02-85 0 0 0.84 1.01l6.83 1.19a0.41 0.41 0 0 1 0.32 0.54l-5.32 15.49a1.17 1.16-7 0 1-0.44 0.56l-12.69 8.55a1.97 1.96-34 0 0-0.54 2.72l0.45 0.67a1.27 1.27 0 0 0 1.96 0.18q3.97-4.04 9.6-7.49a0.32 0.31 80.6 0 1 0.47 0.34q-4.76 19.7-14.66 58.34c-0.5 1.94-1.18 3.64-2.57 5.24q-4.75 5.46-9.47 12.01a0.32 0.32 0 0 1-0.58-0.19v-48.86a1.94 1.9 64.6 0 1 0.41-1.19l9.29-11.61a1.06 1.06 0 0 0-0.48-1.67l-0.28-0.1a2.87 2.86 28.6 0 0-3.15 0.92l-5.22 6.52a0.39 0.39 0 0 1-0.69-0.24v-43.97a0.48 0.48 0 0 1 0.6-0.47z" fill="#fadb70"/> <path d="m459.16 564.38a0.27 0.27 0 0 1 0.27-0.41c16.02 1.88 34.57 2.39 50.78 0.68 11.88-1.26 23.91-2.44 36.04-5.32a0.95 0.95 0 0 1 1.11 0.6q2.11 5.62 4.21 11.82 2.31 6.86 6.94 18.95 6.43 16.82 17.91 47.33 3.56 9.45 7.34 23.22 19.67 71.62 25.86 94.6a0.54 0.54 0 0 1-0.35 0.66l-41.96 14.34a1.32 1.31 67.5 0 1-1.6-0.67c-3.17-6.45-4.73-11.5-7.6-18.25q-10.99-25.86-32.49-78.3c-1.26-3.08-2.44-5.78-4.2-8.62q-15.79-25.44-24.16-38.46-8.84-13.77-11.64-18.41-7.77-12.88-11.66-18.41c-5.66-8.07-10.54-18.35-14.8-25.35z" fill="#6980de"/> <path d="m720.2 565.84a19.51 19.38-101.4 0 1 22.854 15.294 19.51 19.38-101.4 0 1-15.141 22.956 19.51 19.38-101.4 0 1-22.854-15.294 19.51 19.38-101.4 0 1 15.141-22.956z" fill="#070807"/> <path d="m834.39 720.35q-14.97-0.98-29.75-1.93-20.01-1.28-46.88 2.49 6.9-7.58 11.21-16.75l37.14-13.87a2.06 2.06 0 0 0 1.34-1.93l-0.07-119.29q2.5 6.87 6.15 13.52 5.54 10.07 6.65 12.35c7.24 14.87 12.86 26.26 16.79 39.96q3.46 12.05 4.7 22.76 3.7 31.87-7.28 62.69z" fill="#ded1b0"/> <path d="m719.96 569.43a16.14 15.85-104.9 0 1 19.467 11.522 16.14 15.85-104.9 0 1-11.167 19.673 16.14 15.85-104.9 0 1-19.467-11.522 16.14 15.85-104.9 0 1 11.167-19.673z" fill="#fff"/> <path d="m803.06 571.05a0.77 0.77 0 0 1 1.04 0.72v114.93a0.99 0.98-10.3 0 1-0.65 0.92l-19.27 7.13a0.59 0.58 76.8 0 1-0.78-0.49q-3.05-29.3-4.93-64.27a0.73 0.73 0 0 1 0.73-0.77h1.84a1.33 1.32-79.8 0 0 1.24-0.87l4.06-11.34a1.58 1.58 0 0 0-1.49-2.11h-3.96a0.86 0.85-8.2 0 1-0.82-0.61l-1.53-5.11a1.23 1.23 0 0 0-0.82-0.82q-1.58-0.47-3.21-0.27a0.97 0.97 0 0 1-1.09-0.95l-0.13-9.46a1.72 1.72 0 0 0-1.81-1.7h-0.13a1.66 1.66 0 0 0-1.66 1.66l-0.01 9.86a0.4 0.4 0 0 1-0.4 0.4h-3.92a1.7 1.7 0 0 0-1.67 1.4l-0.86 4.95a1.07 1.06 4.8 0 1-1.05 0.88h-4.11a1.44 1.44 0 0 0-1.35 1.94l4.05 10.95a1.55 1.52 84.5 0 0 1.17 0.98l1.43 0.25a1.13 1.13 0 0 1 0.94 1.18l-4.57 72.9a1.38 1.36-8 0 1-0.93 1.22l-19.5 6.66a0.42 0.41 74.5 0 1-0.54-0.31q-0.15-0.77-0.16-1.15-0.35-18.67-0.03-46.92 0.02-2.13-2.15-5.36-7.01-10.44-8.62-13.01a2.03 2.02 42.5 0 1-0.09-2.01q0.59-1.13 1.79-2.82 17.58-24.72 19.95-29.07c4.41-8.06 8.02-13.85 8.67-21.81a1.54 1.53-7.9 0 1 1-1.31l44.33-16.39z" fill="#42c0ed"/> <path d="m606.58 690.5a0.34 0.34 0 0 1-0.62-0.2v-93.49a1.63 1.62 80 0 1 1.06-1.53l61.57-22.76a1.74 1.68-44.6 0 1 1.15-0.01l20.64 7.39a0.78 0.78 0 0 1 0.51 0.82q-1.25 10.67 3.5 19.89 7.24 14.06 16.62 26.72a1.62 1.61-48.3 0 1 0.1 1.77l-9.73 16.85a0.76 0.75 44.7 0 1-1.3 0l-29.77-49.91a1.79 1.79 0 0 0-2.53-0.58q-0.86 0.57-1.4 1.45-6.35 10.31-13.5 21.25-7.47 11.45-10.19 16.13-5.81 10.01-10.14 16.2-3.51 5.02-12.78 20.14-6.81 11.12-13.19 19.87z" fill="#42c0ed"/> <path d="m451.25 574.69a0.31 0.3 39.7 0 1 0.57-0.05q2.93 5.97 6.63 12.22c5.16 8.7 10.27 20.22 14.93 28.03 5.83 9.81 12.87 24.56 20.07 36.4a2.71 2.69-50.8 0 1 0.23 2.34q-3.45 9.4-8.45 20.59-1.85 4.14-6.48 9.04-35.13 37.13-73.11 71.93a0.83 0.82 46.3 0 1-1.14-0.03l-30.72-30.72a1.11 1.1 42.6 0 1-0.07-1.49q5.46-6.51 6.56-7.93c15.16-19.66 38.53-48.11 51.8-65.95 0.83-1.12 1.66-2.77 2-4.23 1.98-8.37 4.53-15.53 6.4-24.11q2.37-10.93 7.08-29.22c1.43-5.59 2.47-12.29 3.7-16.82z" fill="#6980de"/> <path d="m216.55 575.62 0.06 128.51q-15.41-4.68-31.45-3.34-7.36-38.08 5.83-74.13 5.9-16.12 9.48-22.16 6.21-10.48 7.52-13.28 4.88-10.49 8.56-15.6z" fill="#ded1b0"/> <path d="m647.84 633.05q0.02-0.04 0.46-0.75 17.89-28.47 19.88-31.35a0.69 0.68-43.1 0 1 1.15 0.03l18.13 30.4a1.01 1.01 0 0 1 0 1.02l-2.08 3.61a0.8 0.79-55.6 0 1-1.19 0.23l-8.49-6.8a2.01 2.01 0 0 0-2.82 0.32l-7.86 9.82a0.52 0.52 0 0 1-0.85-0.06l-5.58-9.36a2.24 2.23 60.3 0 0-2.98-0.82l-7.39 4.02a0.27 0.27 0 0 1-0.38-0.31z" fill="#fff"/> <path d="m242.39 605.02a0.81 0.81 0 0 1-0.64-0.95l0.14-0.75a2.31 2.09-79.2 0 1 2.49-1.88l0.21 0.04a2.31 2.09-79.2 0 1 1.62 2.67l-0.14 0.74a0.81 0.81 0 0 1-0.95 0.65l-2.73-0.52z" fill="#070807"/> <path d="m289.79 604.62c8.62 0.02 17.49 3.68 23.24 10.33q13.02 15.07 5.37 33.73-2.1 5.12-7.77 13.99-8.82 13.82-20.43 30-0.28 0.39-0.61 0.39-0.22 0-0.49-0.39-11.56-16.22-20.34-30.06-5.64-8.89-7.73-14.02-7.59-18.68 5.48-33.71c5.77-6.63 14.65-10.27 23.28-10.26z" fill="#f06052"/> <path d="m766.71 614.89a0.78 0.78 0 0 1-0.78-0.77l-0.01-0.78a2.2 1.9 89.7 0 1 1.89-2.21l6.76-0.04a2.2 1.9 89.7 0 1 1.91 2.19l0.01 0.78a0.78 0.78 0 0 1-0.78 0.79l-9 0.04z" fill="#6980de"/> <path d="m309.73 635.72a20.02 20.02 0 0 1-20.02 20.02 20.02 20.02 0 0 1-20.02-20.02 20.02 20.02 0 0 1 20.02-20.02 20.02 20.02 0 0 1 20.02 20.02z" fill="#070807"/> <path d="m781.22 619.23-1.59 6a0.89 0.89 0 0 1-0.86 0.66h-15.09a0.89 0.89 0 0 1-0.84-0.61l-1.97-6a0.89 0.89 0 0 1 0.85-1.17h18.64a0.89 0.89 0 0 1 0.86 1.12z" fill="#6980de"/> <path d="m306.43 635.76a16.7 16.7 0 0 1-16.7 16.7 16.7 16.7 0 0 1-16.7-16.7 16.7 16.7 0 0 1 16.7-16.7 16.7 16.7 0 0 1 16.7 16.7z" fill="#fff"/> <path d="m768.04 629.16h6.35a0.53 0.53 0 0 1 0.53 0.49l4.82 66.41a0.53 0.53 0 0 1-0.34 0.54l-15.71 5.8a0.53 0.53 0 0 1-0.71-0.53l4.53-72.21a0.53 0.53 0 0 1 0.53-0.5z" fill="#6980de"/> <path d="m709.51 638.12 3.91-5.75a0.44 0.44 0 0 1 0.72-0.01l4.13 5.59a0.44 0.44 0 0 1-0.34 0.7l-8.05 0.16a0.44 0.44 0 0 1-0.37-0.69z" fill="#fff"/> <path d="m606.63 710.96a0.65 0.65 0 0 1-0.81-0.65l0.36-11.6a3.85 3.85 0 0 1 0.86-2.31q3.05-3.76 5.95-8.74c4.76-8.18 7.13-11.45 13.99-21.85 5.26-7.98 9.47-15.63 15.1-24.3a2.43 2.35-87.7 0 1 0.79-0.75l11.46-6.61a1.62 1.61-32 0 1 2.15 0.49l6.75 10.02a1.47 1.47 0 0 0 2.37 0.11l8.53-10.48a1.21 1.2 38.7 0 1 1.69-0.18l8.47 6.78a1.52 1.52 0 0 0 2.26-0.43l2.37-4.1a0.96 0.96 0 0 1 1.65-0.01l9.25 15.52a1.12 1.11-43.9 0 0 1.89 0.03l5.64-8.64a0.69 0.68-72.5 0 1 0.59-0.31l12.23 0.39a1.64 1.64 0 0 1 0.8 0.23q3.07 1.77 5.26 4.96 3.8 5.52 8 12.99a4.85 4.8-60 0 1 0.62 2.37v46.8a0.6 0.6 0 0 1-0.8 0.56c-6.66-2.46-13.32-4.51-20.24-7.24q-13.16-5.2-23.51-8.5c-7.3-2.32-12.41-4.53-19.53-6.98q-2.13-0.73-5.75 0.66-8.99 3.45-14.03 5.37-11.6 4.41-17.19 6.31-7.28 2.47-9.61 3.48c-6.6 2.87-12.09 5.23-17.56 6.61z" fill="#6980de"/> <path d="m548.67 737.81q-1.33-0.47-2.68-1.39-1.57-1.05-2.6-1.5c-15.29-6.64-31.29-11.65-47.84-11.98q-11.9-0.23-28.4 2.87c-4.5 0.85-8.02 2.87-12.59 4.46q-3.92 1.36-9.19 4.04-14.45 7.36-25.9 16.38a4.22 3.97 11.8 0 1-0.85 0.52q-4.46 2-8.01 5.41-0.95 0.92-1.94 0.35l25.07-23.78a5.98 5.87 13.1 0 1 2.1-1.28l44.69-15.82a1.33 1.32 80.4 0 0 0.88-1.25v-29.21a2.95 2.91 67.5 0 1 0.83-2.05q3.77-3.85 5.45-7.38 8.72-18.42 14.28-35.19a0.3 0.3 0 0 1 0.54-0.07q7.8 11.93 14.65 22.74 2.92 4.61 5.67 11.31 12.83 31.26 25.84 62.82z" fill="#c1e8ef"/> <path d="m441.45 726.45a0.28 0.27-76.6 0 1-0.28-0.46c9.99-9.56 25.26-24.09 36.33-36.97a0.45 0.45 0 0 1 0.79 0.29v23.6a0.51 0.51 0 0 1-0.34 0.48l-36.5 13.06z" fill="#fadb70"/> <path d="m216.61 704.13 0.03 9.03a1.62 1.61-80.9 0 0 1.09 1.52l48.63 16.81q3.03 4.02 8.55 8.59c16.82 13.92 35.73 24.39 56.8 28.76q9.06 1.88 21.07 2.89l25.78 25.29q-3.09 2.03-5.7 2.85-5.59 1.76-11.12 3.46-22.35 6.89-44.38 6.54c-36.61-0.57-70.89-14.88-96.55-41.18q-27.72-28.41-35.65-67.9 16.04-1.34 31.45 3.34z" fill="#f1d1a1"/> <path d="m834.39 720.35q-11.59 30.69-33.75 51.54c-35.29 33.2-84.27 45.76-131.06 33.44q-5.17-1.36-18.69-5.53a0.12 0.09 54.2 0 1-0.06-0.02l-2.97-1.58a2.97 2.95 63.6 0 0-0.91-0.31q-1.82-0.31-3.16-1.18a1.89 1.8 61.6 0 0-0.86-0.28l-2.43-0.14 22.44-7.5a2.9 2.9 0 0 0 1.97-2.57c0.37-6.22-4.62-12.33-9.72-15.4 3.07 0.39 5.52 0.67 8.74 0.31 15.06-1.7 28.48-4.4 40.73-9.99 5.38-2.45 12.35-5.7 17.77-9.04q20.46-12.61 35.33-31.19 26.87-3.77 46.88-2.49 14.78 0.95 29.75 1.93z" fill="#f1d1a1"/> <path d="m548.67 737.81 7.93 19.16q-2.73 0.35-5.32-0.51-30.97-10.33-63.45-4.38c-26.97 4.95-53.25 14.67-77.82 27.19q-5.18 2.64-6.78 4.66-2.65-2.32-3.11-6.49-0.69-6.15-0.81-11.88c-0.03-1.44-0.4-2.63-1.01-4.03a1.11 1.1 49.1 0 1 0.07-1.02q0.77-1.26 2.47-2.64a1.08 1.07 52.3 0 1 1.55 0.2q0.82 1.11 1.76 1.66a1.04 1.02 45.6 0 0 1.02 0.02q2.04-1.12 3.5-2.78 0.99 0.57 1.94-0.35 3.55-3.41 8.01-5.41a4.22 3.97 11.8 0 0 0.85-0.52q11.45-9.02 25.9-16.38 5.27-2.68 9.19-4.04c4.57-1.59 8.09-3.61 12.59-4.46q16.5-3.1 28.4-2.87c16.55 0.33 32.55 5.34 47.84 11.98q1.03 0.45 2.6 1.5 1.35 0.92 2.68 1.39z" fill="#f1d1a1"/> <path d="m398.68 754.34a0.84 0.84 0 0 1-0.0228 1.1877l-2.0752 1.997a0.84 0.84 0 0 1-1.1877-0.0228l-23.201-24.11a0.84 0.84 0 0 1 0.0228-1.1877l2.0752-1.997a0.84 0.84 0 0 1 1.1877 0.0228l23.201 24.11z" fill="#f8c19d"/> <path d="m352.78 771.73q-12.01-1.01-21.07-2.89c-21.07-4.37-39.98-14.84-56.8-28.76q-5.52-4.57-8.55-8.59l73.01 25.6a1.14 1.11-83.9 0 1 0.74 0.94l0.06 0.59a2.07 2.06 19.7 0 0 0.61 1.28l12 11.83z" fill="#c1e8ef"/> <path d="m406.49 806.41c-9.23-8.29-16.11-14.78-24.09-23.35-4.8-5.15-9.58-8.83-14.12-13.71q-6.11-6.56-17.22-17.6a1.02 1.01-44.4 0 1 0.02-1.45l16.89-15.93a0.47 0.47 0 0 1 0.66 0.02l25.17 26.68a5.86 5.81-69.7 0 1 1.56 3.42q0.66 6.59 1.57 12.05 0.67 3.99 1.88 6.55a4 3.9-79 0 0 0.61 0.93c5.64 6.59 11.31 12.6 8.26 22.07a0.74 0.73 29.7 0 1-1.19 0.32z" fill="#6980de"/> <path d="m556.6 756.97 7.29 16.76a1.6 1.59 68.7 0 0 1.97 0.87l3.47-1.18a0.95 0.95 0 0 1 1.17 0.48q0.43 0.86 1.14 3.02 0.06 0.18-0.72 2.13-0.44 1.12 0.17 2.86 4.42 12.72 9.74 30.34a0.4 0.4 0 0 1-0.38 0.51h-172.91a0.29 0.29 0 0 1-0.26-0.42c0.74-1.41 2.39-3.35 3.05-4.98q3.53-8.81-1.19-16.55c-1.27-2.1-3.98-4.55-5.91-6.88q1.6-2.02 6.78-4.66c24.57-12.52 50.85-22.24 77.82-27.19q32.48-5.95 63.45 4.38 2.59 0.86 5.32 0.51z" fill="#fff"/> <path d="m404.85 809.96q-1.68 2.53-3.96 2.91a1.43 1.43 0 0 1-1.26-0.42c-5.94-6.15-12.17-10.56-17.8-16.82q-5.89-6.56-13.73-13.5c-8.49-7.51-14.84-15.08-23.51-23.76a1.03 1.02 46.7 0 1 0.04-1.49l2.81-2.53a0.82 0.81-39.1 0 1 1.2 0.12q0.27 0.35 18.51 17.62c3.59 3.41 8.16 9.27 12.46 13.16q10.9 9.86 19.03 18.45c1.46 1.55 4.81 3.8 6.15 5.34a0.76 0.76 0 0 1 0.06 0.92z" fill="#6980de"/> <path d="m608.58 764.03a0.98 0.98 0 0 1-0.6227 1.2382l-32.527 10.757a0.98 0.98 0 0 1-1.2382-0.6227l-0.7598-2.2976a0.98 0.98 0 0 1 0.6227-1.2382l32.527-10.757a0.98 0.98 0 0 1 1.2382 0.6227l0.7598 2.2976z" fill="#f1d1a1"/> <path d="m658 777.02a0.74 0.74 0 0 1-0.35 1.17l-75.49 24.73a0.84 0.83 72.4 0 1-1.06-0.56l-6.37-21.29a0.77 0.77 0 0 1 0.5-0.95q17.81-5.92 34.5-11.61 1.03-0.34 3.64-0.46a2.37 2.22-34.3 0 1 0.9 0.14q3.51 1.34 11.29 4.72 2.74 1.19 6 1.27a3.72 3.63 39.4 0 0 0.81-0.07c9.3-1.78 18.62-5.88 25.63 2.91z" fill="#6980de"/> <path d="m661.57 784.82a1.26 1.26 0 0 1-0.7979 1.5933l-75.625 25.157a1.26 1.26 0 0 1-1.5933-0.7979l-1.0732-3.2262a1.26 1.26 0 0 1 0.7979-1.5933l75.625-25.157a1.26 1.26 0 0 1 1.5933 0.7979l1.0732 3.2262z" fill="#6980de"/> <path d="m849.44 814.42a1.53 1.53 0 0 1-1.5274 1.5327l-25.94 0.0452a1.53 1.53 0 0 1-1.5327-1.5273l-2e-4 -0.1a1.53 1.53 0 0 1 1.5274-1.5327l25.94-0.0452a1.53 1.53 0 0 1 1.5327 1.5273l2e-4 0.1z" fill="#070807"/> </svg>